<?xml version="1.0" encoding="UTF-8"?>
<svg id="Layer_1" data-name="Layer 1" xmlns="http://www.w3.org/2000/svg" viewBox="0 0 1081 1081.16">
  <defs>
    <style>
      .cls-1 {
        fill: none;
      }

      .cls-1, .cls-2 {
        stroke: #231f20;
        stroke-miterlimit: 10;
      }

      .cls-3 {
        fill: #231f20;
        stroke-width: 0px;
      }

      .cls-2 {
        fill: #fff;
        stroke-width: 3px;
      }
    </style>
  </defs>
  <g>
    <path class="cls-2" d="M465.51,139.82v801.07c-9.66-6.97-19.1-14.09-28.47-21.43-15.69-12.27-30.87-24.98-45.68-38.27V243.1c-10.17,3.2-20.41,6.17-30.72,8.86-14.31,3.85-28.83,7.26-43.5,10.17v544.05c-10.02-11.4-19.75-23.1-29.2-35.01-15.83-19.97-30.87-40.67-44.96-61.95v-435.98c-24.4,2.47-49.17,3.7-74.15,3.7v295.16c-3.41-7.77-6.61-15.54-9.73-23.46-9.73-24.18-18.3-48.95-25.78-74.15-7.34-24.33-13.58-49.1-18.74-74.22-5.01-24.33-9.08-49.1-11.98-74.15-2.98-24.4-4.87-49.17-5.74-74.15-.36-10.6-.58-21.28-.58-31.96,24.4,0,48.59-1.02,72.55-2.91,24.98-2.03,49.75-5.08,74.15-9.15,25.13-4.21,49.82-9.37,74.15-15.61,16.99-4.36,33.7-9.22,50.26-14.53,8.06-2.54,16.05-5.23,23.97-8.06,25.27-8.86,49.97-18.88,74.15-29.92Z"/>
    <path class="cls-2" d="M984.72,220c0,10.68-.22,21.35-.58,31.96-.87,24.98-2.76,49.75-5.74,74.15-2.91,25.06-6.97,49.82-11.98,74.15-5.16,25.13-11.4,49.89-18.74,74.22-7.48,25.2-16.05,49.97-25.78,74.15-3.56,9.15-7.34,18.16-11.33,27.09v-298.79c-25.06,0-49.82-1.23-74.22-3.7v438.45c-13.58,20.41-28.03,40.31-43.29,59.48-9.95,12.64-20.26,24.91-30.87,36.97V262.05c-14.45-2.9-28.76-6.32-42.85-10.09-10.53-2.76-20.99-5.81-31.3-9.08v639.77c-14.23,12.71-28.91,24.98-44.01,36.82-9.88,7.77-19.9,15.32-30.14,22.66V139.02c24.18,11.11,48.88,21.21,74.15,30.14,8.5,3.05,16.99,5.96,25.56,8.64,15.98,5.16,32.17,9.88,48.59,14.09,24.33,6.25,49.02,11.55,74.15,15.76,24.4,4.14,49.17,7.19,74.22,9.3,24.48,2.03,49.17,3.05,74.15,3.05Z"/>
  </g>
  <g>
    <path class="cls-3" d="M1080.5,145.19c0,399.71-217.19,748.66-540,935.39C217.69,893.85.5,544.9.5,145.19c196.67,0,381.13-52.59,540-144.61,158.87,92.02,343.33,144.61,540,144.61ZM540.19,994.12c269.1-155.65,450.14-446.53,450.14-779.73-163.94,0-317.7-43.84-450.14-120.55-132.43,76.71-286.19,120.55-450.14,120.55,0,333.2,181.05,624.08,450.14,779.73Z"/>
    <g>
      <path class="cls-1" d="M990.33,214.39c0,333.2-181.04,624.08-450.14,779.73C271.1,838.47,90.05,547.59,90.05,214.39c163.95,0,317.71-43.84,450.14-120.55,132.44,76.71,286.2,120.55,450.14,120.55Z"/>
      <path class="cls-1" d="M1080.5,145.19c0,399.71-217.19,748.66-540,935.39C217.69,893.85.5,544.9.5,145.19c196.67,0,381.13-52.59,540-144.61,158.87,92.02,343.33,144.61,540,144.61Z"/>
    </g>
  </g>
</svg>